<svg width="1024" height="753" viewBox="0 0 1024 753" fill="none" xmlns="http://www.w3.org/2000/svg">
<g clip-path="url(#clip0_122_130)">
<rect width="1024" height="753" fill="#121214"/>
<g opacity="0.2" filter="url(#filter0_f_122_130)">
<ellipse cx="512.5" cy="47" rx="670.5" ry="350" fill="#338AF3"/>
</g>
<path d="M33.0349 283C34.5302 283 35.6622 283.63 36.4308 284.891C37.2134 286.138 37.6047 287.953 37.6047 290.336C37.6047 292.719 37.2134 294.541 36.4308 295.802C35.6622 297.063 34.5302 297.693 33.0349 297.693C31.5536 297.693 30.4216 297.063 29.639 295.802C28.8564 294.541 28.4651 292.719 28.4651 290.336C28.4651 287.967 28.8564 286.152 29.639 284.891C30.4216 283.63 31.5536 283 33.0349 283ZM29.9534 290.336C29.9534 292.026 30.1072 293.35 30.4146 294.306L35.0683 285.099C34.5791 284.448 33.9013 284.122 33.0349 284.122C32.0706 284.122 31.316 284.635 30.771 285.66C30.2259 286.672 29.9534 288.23 29.9534 290.336ZM33.0349 296.55C34.0131 296.55 34.7748 296.044 35.3198 295.033C35.8648 294.008 36.1373 292.442 36.1373 290.336C36.1373 288.549 35.9627 287.163 35.6133 286.18L30.9596 295.469C31.4627 296.19 32.1545 296.55 33.0349 296.55Z" fill="url(#paint0_linear_122_130)" fill-opacity="0.6"/>
<path d="M34.2926 320.135H37.3741V321.236H29.3874V320.135H32.9511V308.455L29.5551 310.471L28.9682 309.536L33.1607 306.959H34.2926V320.135Z" fill="url(#paint1_linear_122_130)" fill-opacity="0.6"/>
<path d="M33.0349 330.502C34.5302 330.502 35.6622 331.133 36.4308 332.393C37.2134 333.64 37.6047 335.455 37.6047 337.838C37.6047 340.221 37.2134 342.043 36.4308 343.304C35.6622 344.565 34.5302 345.195 33.0349 345.195C31.5536 345.195 30.4216 344.565 29.639 343.304C28.8564 342.043 28.4651 340.221 28.4651 337.838C28.4651 335.469 28.8564 333.654 29.639 332.393C30.4216 331.133 31.5536 330.502 33.0349 330.502ZM29.9534 337.838C29.9534 339.529 30.1072 340.852 30.4146 341.808L35.0683 332.601C34.5791 331.95 33.9013 331.624 33.0349 331.624C32.0706 331.624 31.316 332.137 30.771 333.162C30.2259 334.174 29.9534 335.732 29.9534 337.838ZM33.0349 344.052C34.0131 344.052 34.7748 343.546 35.3198 342.535C35.8648 341.51 36.1373 339.944 36.1373 337.838C36.1373 336.051 35.9627 334.665 35.6133 333.682L30.9596 342.971C31.4627 343.692 32.1545 344.052 33.0349 344.052Z" fill="url(#paint2_linear_122_130)" fill-opacity="0.6"/>
<path d="M34.2926 367.637H37.3741V368.738H29.3874V367.637H32.9511V355.957L29.5551 357.973L28.9682 357.038L33.1607 354.461H34.2926V367.637Z" fill="url(#paint3_linear_122_130)" fill-opacity="0.6"/>
<path d="M34.2926 391.388H37.3741V392.489H29.3874V391.388H32.9511V379.708L29.5551 381.724L28.9682 380.789L33.1607 378.212H34.2926V391.388Z" fill="url(#paint4_linear_122_130)" fill-opacity="0.6"/>
<path d="M33.0349 401.755C34.5302 401.755 35.6622 402.386 36.4308 403.646C37.2134 404.893 37.6047 406.708 37.6047 409.091C37.6047 411.474 37.2134 413.296 36.4308 414.557C35.6622 415.818 34.5302 416.448 33.0349 416.448C31.5536 416.448 30.4216 415.818 29.639 414.557C28.8564 413.296 28.4651 411.474 28.4651 409.091C28.4651 406.722 28.8564 404.907 29.639 403.646C30.4216 402.386 31.5536 401.755 33.0349 401.755ZM29.9534 409.091C29.9534 410.782 30.1072 412.105 30.4146 413.061L35.0683 403.854C34.5791 403.203 33.9013 402.878 33.0349 402.878C32.0706 402.878 31.316 403.39 30.771 404.415C30.2259 405.427 29.9534 406.985 29.9534 409.091ZM33.0349 415.305C34.0131 415.305 34.7748 414.8 35.3198 413.788C35.8648 412.763 36.1373 411.197 36.1373 409.091C36.1373 407.304 35.9627 405.919 35.6133 404.935L30.9596 414.225C31.4627 414.945 32.1545 415.305 33.0349 415.305Z" fill="url(#paint5_linear_122_130)" fill-opacity="0.6"/>
<path d="M34.2926 438.89H37.3741V439.992H29.3874V438.89H32.9511V427.21L29.5551 429.226L28.9682 428.291L33.1607 425.714H34.2926V438.89Z" fill="url(#paint6_linear_122_130)" fill-opacity="0.6"/>
<path d="M33.0349 449.257C34.5302 449.257 35.6622 449.888 36.4308 451.149C37.2134 452.396 37.6047 454.211 37.6047 456.594C37.6047 458.977 37.2134 460.798 36.4308 462.059C35.6622 463.32 34.5302 463.95 33.0349 463.95C31.5536 463.95 30.4216 463.32 29.639 462.059C28.8564 460.798 28.4651 458.977 28.4651 456.594C28.4651 454.224 28.8564 452.409 29.639 451.149C30.4216 449.888 31.5536 449.257 33.0349 449.257ZM29.9534 456.594C29.9534 458.284 30.1072 459.607 30.4146 460.563L35.0683 451.356C34.5791 450.705 33.9013 450.38 33.0349 450.38C32.0706 450.38 31.316 450.892 30.771 451.918C30.2259 452.929 29.9534 454.488 29.9534 456.594ZM33.0349 462.807C34.0131 462.807 34.7748 462.302 35.3198 461.29C35.8648 460.265 36.1373 458.699 36.1373 456.594C36.1373 454.806 35.9627 453.421 35.6133 452.437L30.9596 461.727C31.4627 462.447 32.1545 462.807 33.0349 462.807Z" fill="url(#paint7_linear_122_130)" fill-opacity="0.6"/>
<path d="M33.0349 473.008C34.5302 473.008 35.6622 473.639 36.4308 474.9C37.2134 476.147 37.6047 477.962 37.6047 480.345C37.6047 482.728 37.2134 484.549 36.4308 485.81C35.6622 487.071 34.5302 487.701 33.0349 487.701C31.5536 487.701 30.4216 487.071 29.639 485.81C28.8564 484.549 28.4651 482.728 28.4651 480.345C28.4651 477.975 28.8564 476.16 29.639 474.9C30.4216 473.639 31.5536 473.008 33.0349 473.008ZM29.9534 480.345C29.9534 482.035 30.1072 483.358 30.4146 484.314L35.0683 475.107C34.5791 474.456 33.9013 474.131 33.0349 474.131C32.0706 474.131 31.316 474.643 30.771 475.669C30.2259 476.68 29.9534 478.239 29.9534 480.345ZM33.0349 486.558C34.0131 486.558 34.7748 486.053 35.3198 485.041C35.8648 484.016 36.1373 482.451 36.1373 480.345C36.1373 478.557 35.9627 477.172 35.6133 476.188L30.9596 485.478C31.4627 486.198 32.1545 486.558 33.0349 486.558Z" fill="url(#paint8_linear_122_130)" fill-opacity="0.6"/>
<path d="M34.2926 510.143H37.3741V511.245H29.3874V510.143H32.9511V498.464L29.5551 500.48L28.9682 499.544L33.1607 496.967H34.2926V510.143Z" fill="url(#paint9_linear_122_130)" fill-opacity="0.6"/>
<path d="M33.0349 520.511C34.5302 520.511 35.6622 521.141 36.4308 522.402C37.2134 523.649 37.6047 525.464 37.6047 527.847C37.6047 530.23 37.2134 532.052 36.4308 533.312C35.6622 534.573 34.5302 535.204 33.0349 535.204C31.5536 535.204 30.4216 534.573 29.639 533.312C28.8564 532.052 28.4651 530.23 28.4651 527.847C28.4651 525.478 28.8564 523.663 29.639 522.402C30.4216 521.141 31.5536 520.511 33.0349 520.511ZM29.9534 527.847C29.9534 529.537 30.1072 530.86 30.4146 531.816L35.0683 522.61C34.5791 521.958 33.9013 521.633 33.0349 521.633C32.0706 521.633 31.316 522.145 30.771 523.171C30.2259 524.182 29.9534 525.741 29.9534 527.847ZM33.0349 534.061C34.0131 534.061 34.7748 533.555 35.3198 532.543C35.8648 531.518 36.1373 529.953 36.1373 527.847C36.1373 526.059 35.9627 524.674 35.6133 523.69L30.9596 532.98C31.4627 533.7 32.1545 534.061 33.0349 534.061Z" fill="url(#paint10_linear_122_130)" fill-opacity="0.6"/>
<path d="M34.2926 557.645H37.3741V558.747H29.3874V557.645H32.9511V545.966L29.5551 547.982L28.9682 547.046L33.1607 544.469H34.2926V557.645Z" fill="url(#paint11_linear_122_130)" fill-opacity="0.6"/>
<path d="M34.2926 581.396H37.3741V582.498H29.3874V581.396H32.9511V569.717L29.5551 571.733L28.9682 570.798L33.1607 568.221H34.2926V581.396Z" fill="url(#paint12_linear_122_130)" fill-opacity="0.6"/>
<path d="M71.9651 330.502C73.4604 330.502 74.5924 331.133 75.361 332.393C76.1436 333.64 76.5349 335.455 76.5349 337.838C76.5349 340.221 76.1436 342.043 75.361 343.304C74.5924 344.565 73.4604 345.195 71.9651 345.195C70.4838 345.195 69.3518 344.565 68.5692 343.304C67.7866 342.043 67.3953 340.221 67.3953 337.838C67.3953 335.469 67.7866 333.654 68.5692 332.393C69.3518 331.133 70.4838 330.502 71.9651 330.502ZM68.8836 337.838C68.8836 339.529 69.0374 340.852 69.3448 341.808L73.9985 332.601C73.5093 331.95 72.8315 331.624 71.9651 331.624C71.0008 331.624 70.2462 332.137 69.7012 333.162C69.1561 334.174 68.8836 335.732 68.8836 337.838ZM71.9651 344.052C72.9433 344.052 73.705 343.546 74.25 342.535C74.795 341.51 75.0675 339.944 75.0675 337.838C75.0675 336.051 74.8928 334.665 74.5435 333.682L69.8898 342.971C70.3929 343.692 71.0847 344.052 71.9651 344.052Z" fill="url(#paint13_linear_122_130)" fill-opacity="0.6"/>
<path d="M73.2228 367.637H76.3043V368.738H68.3176V367.637H71.8812V355.957L68.4853 357.973L67.8984 357.038L72.0909 354.461H73.2228V367.637Z" fill="url(#paint14_linear_122_130)" fill-opacity="0.6"/>
<path d="M71.9651 378.004C73.4604 378.004 74.5924 378.635 75.361 379.895C76.1436 381.142 76.5349 382.957 76.5349 385.34C76.5349 387.723 76.1436 389.545 75.361 390.806C74.5924 392.067 73.4604 392.697 71.9651 392.697C70.4838 392.697 69.3518 392.067 68.5692 390.806C67.7866 389.545 67.3953 387.723 67.3953 385.34C67.3953 382.971 67.7866 381.156 68.5692 379.895C69.3518 378.635 70.4838 378.004 71.9651 378.004ZM68.8836 385.34C68.8836 387.031 69.0374 388.354 69.3448 389.31L73.9985 380.103C73.5093 379.452 72.8315 379.126 71.9651 379.126C71.0008 379.126 70.2462 379.639 69.7012 380.664C69.1561 381.676 68.8836 383.234 68.8836 385.34ZM71.9651 391.554C72.9433 391.554 73.705 391.049 74.25 390.037C74.795 389.012 75.0675 387.446 75.0675 385.34C75.0675 383.553 74.8928 382.168 74.5435 381.184L69.8898 390.474C70.3929 391.194 71.0847 391.554 71.9651 391.554Z" fill="url(#paint15_linear_122_130)" fill-opacity="0.6"/>
<path d="M71.9651 401.755C73.4604 401.755 74.5924 402.386 75.361 403.646C76.1436 404.893 76.5349 406.708 76.5349 409.091C76.5349 411.474 76.1436 413.296 75.361 414.557C74.5924 415.818 73.4604 416.448 71.9651 416.448C70.4838 416.448 69.3518 415.818 68.5692 414.557C67.7866 413.296 67.3953 411.474 67.3953 409.091C67.3953 406.722 67.7866 404.907 68.5692 403.646C69.3518 402.386 70.4838 401.755 71.9651 401.755ZM68.8836 409.091C68.8836 410.782 69.0374 412.105 69.3448 413.061L73.9985 403.854C73.5093 403.203 72.8315 402.878 71.9651 402.878C71.0008 402.878 70.2462 403.39 69.7012 404.415C69.1561 405.427 68.8836 406.985 68.8836 409.091ZM71.9651 415.305C72.9433 415.305 73.705 414.8 74.25 413.788C74.795 412.763 75.0675 411.197 75.0675 409.091C75.0675 407.304 74.8928 405.919 74.5435 404.935L69.8898 414.225C70.3929 414.945 71.0847 415.305 71.9651 415.305Z" fill="url(#paint16_linear_122_130)" fill-opacity="0.6"/>
<path d="M73.2228 438.89H76.3043V439.992H68.3176V438.89H71.8812V427.21L68.4853 429.226L67.8984 428.291L72.0909 425.714H73.2228V438.89Z" fill="url(#paint17_linear_122_130)" fill-opacity="0.6"/>
<path d="M71.9651 449.257C73.4604 449.257 74.5924 449.888 75.361 451.149C76.1436 452.396 76.5349 454.211 76.5349 456.594C76.5349 458.977 76.1436 460.798 75.361 462.059C74.5924 463.32 73.4604 463.95 71.9651 463.95C70.4838 463.95 69.3518 463.32 68.5692 462.059C67.7866 460.798 67.3953 458.977 67.3953 456.594C67.3953 454.224 67.7866 452.409 68.5692 451.149C69.3518 449.888 70.4838 449.257 71.9651 449.257ZM68.8836 456.594C68.8836 458.284 69.0374 459.607 69.3448 460.563L73.9985 451.356C73.5093 450.705 72.8315 450.38 71.9651 450.38C71.0008 450.38 70.2462 450.892 69.7012 451.918C69.1561 452.929 68.8836 454.488 68.8836 456.594ZM71.9651 462.807C72.9433 462.807 73.705 462.302 74.25 461.29C74.795 460.265 75.0675 458.699 75.0675 456.594C75.0675 454.806 74.8928 453.421 74.5435 452.437L69.8898 461.727C70.3929 462.447 71.0847 462.807 71.9651 462.807Z" fill="url(#paint18_linear_122_130)" fill-opacity="0.6"/>
<path d="M73.2228 486.392H76.3043V487.494H68.3176V486.392H71.8812V474.713L68.4853 476.728L67.8984 475.793L72.0909 473.216H73.2228V486.392Z" fill="url(#paint19_linear_122_130)" fill-opacity="0.6"/>
<path d="M71.9651 496.76C73.4604 496.76 74.5924 497.39 75.361 498.651C76.1436 499.898 76.5349 501.713 76.5349 504.096C76.5349 506.479 76.1436 508.301 75.361 509.561C74.5924 510.822 73.4604 511.453 71.9651 511.453C70.4838 511.453 69.3518 510.822 68.5692 509.561C67.7866 508.301 67.3953 506.479 67.3953 504.096C67.3953 501.726 67.7866 499.911 68.5692 498.651C69.3518 497.39 70.4838 496.76 71.9651 496.76ZM68.8836 504.096C68.8836 505.786 69.0374 507.109 69.3448 508.065L73.9985 498.859C73.5093 498.207 72.8315 497.882 71.9651 497.882C71.0008 497.882 70.2462 498.394 69.7012 499.42C69.1561 500.431 68.8836 501.99 68.8836 504.096ZM71.9651 510.31C72.9433 510.31 73.705 509.804 74.25 508.792C74.795 507.767 75.0675 506.202 75.0675 504.096C75.0675 502.308 74.8928 500.923 74.5435 499.939L69.8898 509.229C70.3929 509.949 71.0847 510.31 71.9651 510.31Z" fill="url(#paint20_linear_122_130)" fill-opacity="0.6"/>
<path d="M71.9651 520.511C73.4604 520.511 74.5924 521.141 75.361 522.402C76.1436 523.649 76.5349 525.464 76.5349 527.847C76.5349 530.23 76.1436 532.052 75.361 533.312C74.5924 534.573 73.4604 535.204 71.9651 535.204C70.4838 535.204 69.3518 534.573 68.5692 533.312C67.7866 532.052 67.3953 530.23 67.3953 527.847C67.3953 525.478 67.7866 523.663 68.5692 522.402C69.3518 521.141 70.4838 520.511 71.9651 520.511ZM68.8836 527.847C68.8836 529.537 69.0374 530.86 69.3448 531.816L73.9985 522.61C73.5093 521.958 72.8315 521.633 71.9651 521.633C71.0008 521.633 70.2462 522.145 69.7012 523.171C69.1561 524.182 68.8836 525.741 68.8836 527.847ZM71.9651 534.061C72.9433 534.061 73.705 533.555 74.25 532.543C74.795 531.518 75.0675 529.953 75.0675 527.847C75.0675 526.059 74.8928 524.674 74.5435 523.69L69.8898 532.98C70.3929 533.7 71.0847 534.061 71.9651 534.061Z" fill="url(#paint21_linear_122_130)" fill-opacity="0.6"/>
<path d="M73.2228 557.645H76.3043V558.747H68.3176V557.645H71.8812V545.966L68.4853 547.982L67.8984 547.046L72.0909 544.469H73.2228V557.645Z" fill="url(#paint22_linear_122_130)" fill-opacity="0.6"/>
<path d="M71.9651 568.013C73.4604 568.013 74.5924 568.643 75.361 569.904C76.1436 571.151 76.5349 572.966 76.5349 575.349C76.5349 577.732 76.1436 579.554 75.361 580.815C74.5924 582.075 73.4604 582.706 71.9651 582.706C70.4838 582.706 69.3518 582.075 68.5692 580.815C67.7866 579.554 67.3953 577.732 67.3953 575.349C67.3953 572.98 67.7866 571.165 68.5692 569.904C69.3518 568.643 70.4838 568.013 71.9651 568.013ZM68.8836 575.349C68.8836 577.039 69.0374 578.362 69.3448 579.318L73.9985 570.112C73.5093 569.461 72.8315 569.135 71.9651 569.135C71.0008 569.135 70.2462 569.648 69.7012 570.673C69.1561 571.684 68.8836 573.243 68.8836 575.349ZM71.9651 581.563C72.9433 581.563 73.705 581.057 74.25 580.046C74.795 579.02 75.0675 577.455 75.0675 575.349C75.0675 573.562 74.8928 572.176 74.5435 571.192L69.8898 580.482C70.3929 581.202 71.0847 581.563 71.9651 581.563Z" fill="url(#paint23_linear_122_130)" fill-opacity="0.6"/>
<path d="M73.2228 605.147H76.3043V606.249H68.3176V605.147H71.8812V593.468L68.4853 595.484L67.8984 594.549L72.0909 591.972H73.2228V605.147Z" fill="url(#paint24_linear_122_130)" fill-opacity="0.6"/>
<path d="M73.2228 628.899H76.3043V630H68.3176V628.899H71.8812V617.219L68.4853 619.235L67.8984 618.3L72.0909 615.723H73.2228V628.899Z" fill="url(#paint25_linear_122_130)" fill-opacity="0.6"/>
<path d="M13.5698 354.253C15.0651 354.253 16.1971 354.884 16.9657 356.144C17.7483 357.391 18.1396 359.206 18.1396 361.589C18.1396 363.972 17.7483 365.794 16.9657 367.055C16.1971 368.316 15.0651 368.946 13.5698 368.946C12.0885 368.946 10.9565 368.316 10.1739 367.055C9.3913 365.794 9 363.972 9 361.589C9 359.22 9.3913 357.405 10.1739 356.144C10.9565 354.884 12.0885 354.253 13.5698 354.253ZM10.4883 361.589C10.4883 363.28 10.6421 364.603 10.9495 365.559L15.6032 356.352C15.114 355.701 14.4363 355.375 13.5698 355.375C12.6055 355.375 11.8509 355.888 11.3059 356.913C10.7608 357.925 10.4883 359.483 10.4883 361.589ZM13.5698 367.803C14.5481 367.803 15.3097 367.297 15.8547 366.286C16.3997 365.261 16.6722 363.695 16.6722 361.589C16.6722 359.802 16.4976 358.417 16.1482 357.433L11.4945 366.722C11.9976 367.443 12.6894 367.803 13.5698 367.803Z" fill="url(#paint26_linear_122_130)" fill-opacity="0.6"/>
<path d="M13.5698 378.004C15.0651 378.004 16.1971 378.635 16.9657 379.895C17.7483 381.142 18.1396 382.957 18.1396 385.34C18.1396 387.723 17.7483 389.545 16.9657 390.806C16.1971 392.067 15.0651 392.697 13.5698 392.697C12.0885 392.697 10.9565 392.067 10.1739 390.806C9.3913 389.545 9 387.723 9 385.34C9 382.971 9.3913 381.156 10.1739 379.895C10.9565 378.635 12.0885 378.004 13.5698 378.004ZM10.4883 385.34C10.4883 387.031 10.6421 388.354 10.9495 389.31L15.6032 380.103C15.114 379.452 14.4363 379.126 13.5698 379.126C12.6055 379.126 11.8509 379.639 11.3059 380.664C10.7608 381.676 10.4883 383.234 10.4883 385.34ZM13.5698 391.554C14.5481 391.554 15.3097 391.049 15.8547 390.037C16.3997 389.012 16.6722 387.446 16.6722 385.34C16.6722 383.553 16.4976 382.168 16.1482 381.184L11.4945 390.474C11.9976 391.194 12.6894 391.554 13.5698 391.554Z" fill="url(#paint27_linear_122_130)" fill-opacity="0.6"/>
<path d="M14.8276 415.139H17.909V416.24H9.92235V415.139H13.486V403.459L10.09 405.475L9.5031 404.54L13.6956 401.963H14.8276V415.139Z" fill="url(#paint28_linear_122_130)" fill-opacity="0.6"/>
<path d="M13.5698 425.506C15.0651 425.506 16.1971 426.137 16.9657 427.398C17.7483 428.644 18.1396 430.459 18.1396 432.842C18.1396 435.225 17.7483 437.047 16.9657 438.308C16.1971 439.569 15.0651 440.199 13.5698 440.199C12.0885 440.199 10.9565 439.569 10.1739 438.308C9.3913 437.047 9 435.225 9 432.842C9 430.473 9.3913 428.658 10.1739 427.398C10.9565 426.137 12.0885 425.506 13.5698 425.506ZM10.4883 432.842C10.4883 434.533 10.6421 435.856 10.9495 436.812L15.6032 427.605C15.114 426.954 14.4363 426.629 13.5698 426.629C12.6055 426.629 11.8509 427.141 11.3059 428.166C10.7608 429.178 10.4883 430.737 10.4883 432.842ZM13.5698 439.056C14.5481 439.056 15.3097 438.551 15.8547 437.539C16.3997 436.514 16.6722 434.948 16.6722 432.842C16.6722 431.055 16.4976 429.67 16.1482 428.686L11.4945 437.976C11.9976 438.696 12.6894 439.056 13.5698 439.056Z" fill="url(#paint29_linear_122_130)" fill-opacity="0.6"/>
<path d="M14.8276 462.641H17.909V463.743H9.92235V462.641H13.486V450.962L10.09 452.977L9.5031 452.042L13.6956 449.465H14.8276V462.641Z" fill="url(#paint30_linear_122_130)" fill-opacity="0.6"/>
<path d="M14.8276 486.392H17.909V487.494H9.92235V486.392H13.486V474.713L10.09 476.728L9.5031 475.793L13.6956 473.216H14.8276V486.392Z" fill="url(#paint31_linear_122_130)" fill-opacity="0.6"/>
<path d="M53.7577 320.135H56.8392V321.236H48.8525V320.135H52.4162V308.455L49.0202 310.471L48.4333 309.536L52.6258 306.959H53.7577V320.135Z" fill="url(#paint32_linear_122_130)" fill-opacity="0.6"/>
<path d="M52.5 330.502C53.9953 330.502 55.1273 331.133 55.8959 332.393C56.6785 333.64 57.0698 335.455 57.0698 337.838C57.0698 340.221 56.6785 342.043 55.8959 343.304C55.1273 344.565 53.9953 345.195 52.5 345.195C51.0187 345.195 49.8867 344.565 49.1041 343.304C48.3215 342.043 47.9302 340.221 47.9302 337.838C47.9302 335.469 48.3215 333.654 49.1041 332.393C49.8867 331.133 51.0187 330.502 52.5 330.502ZM49.4185 337.838C49.4185 339.529 49.5723 340.852 49.8797 341.808L54.5334 332.601C54.0442 331.95 53.3664 331.624 52.5 331.624C51.5357 331.624 50.7811 332.137 50.2361 333.162C49.691 334.174 49.4185 335.732 49.4185 337.838ZM52.5 344.052C53.4782 344.052 54.2399 343.546 54.7849 342.535C55.3299 341.51 55.6024 339.944 55.6024 337.838C55.6024 336.051 55.4277 334.665 55.0784 333.682L50.4247 342.971C50.9278 343.692 51.6196 344.052 52.5 344.052Z" fill="url(#paint33_linear_122_130)" fill-opacity="0.6"/>
<path d="M53.7577 367.637H56.8392V368.738H48.8525V367.637H52.4162V355.957L49.0202 357.973L48.4333 357.038L52.6258 354.461H53.7577V367.637Z" fill="url(#paint34_linear_122_130)" fill-opacity="0.6"/>
<path d="M53.7577 391.388H56.8392V392.489H48.8525V391.388H52.4162V379.708L49.0202 381.724L48.4333 380.789L52.6258 378.212H53.7577V391.388Z" fill="url(#paint35_linear_122_130)" fill-opacity="0.6"/>
<path d="M52.5 401.755C53.9953 401.755 55.1273 402.386 55.8959 403.646C56.6785 404.893 57.0698 406.708 57.0698 409.091C57.0698 411.474 56.6785 413.296 55.8959 414.557C55.1273 415.818 53.9953 416.448 52.5 416.448C51.0187 416.448 49.8867 415.818 49.1041 414.557C48.3215 413.296 47.9302 411.474 47.9302 409.091C47.9302 406.722 48.3215 404.907 49.1041 403.646C49.8867 402.386 51.0187 401.755 52.5 401.755ZM49.4185 409.091C49.4185 410.782 49.5723 412.105 49.8797 413.061L54.5334 403.854C54.0442 403.203 53.3664 402.878 52.5 402.878C51.5357 402.878 50.7811 403.39 50.2361 404.415C49.691 405.427 49.4185 406.985 49.4185 409.091ZM52.5 415.305C53.4782 415.305 54.2399 414.8 54.7849 413.788C55.3299 412.763 55.6024 411.197 55.6024 409.091C55.6024 407.304 55.4277 405.919 55.0784 404.935L50.4247 414.225C50.9278 414.945 51.6196 415.305 52.5 415.305Z" fill="url(#paint36_linear_122_130)" fill-opacity="0.6"/>
<path d="M53.7577 438.89H56.8392V439.992H48.8525V438.89H52.4162V427.21L49.0202 429.226L48.4333 428.291L52.6258 425.714H53.7577V438.89Z" fill="url(#paint37_linear_122_130)" fill-opacity="0.6"/>
<path d="M53.7577 462.641H56.8392V463.743H48.8525V462.641H52.4162V450.962L49.0202 452.977L48.4333 452.042L52.6258 449.465H53.7577V462.641Z" fill="url(#paint38_linear_122_130)" fill-opacity="0.6"/>
<path d="M52.5 473.008C53.9953 473.008 55.1273 473.639 55.8959 474.9C56.6785 476.147 57.0698 477.962 57.0698 480.345C57.0698 482.728 56.6785 484.549 55.8959 485.81C55.1273 487.071 53.9953 487.701 52.5 487.701C51.0187 487.701 49.8867 487.071 49.1041 485.81C48.3215 484.549 47.9302 482.728 47.9302 480.345C47.9302 477.975 48.3215 476.16 49.1041 474.9C49.8867 473.639 51.0187 473.008 52.5 473.008ZM49.4185 480.345C49.4185 482.035 49.5723 483.358 49.8797 484.314L54.5334 475.107C54.0442 474.456 53.3664 474.131 52.5 474.131C51.5357 474.131 50.7811 474.643 50.2361 475.669C49.691 476.68 49.4185 478.239 49.4185 480.345ZM52.5 486.558C53.4782 486.558 54.2399 486.053 54.7849 485.041C55.3299 484.016 55.6024 482.451 55.6024 480.345C55.6024 478.557 55.4277 477.172 55.0784 476.188L50.4247 485.478C50.9278 486.198 51.6196 486.558 52.5 486.558Z" fill="url(#paint39_linear_122_130)" fill-opacity="0.6"/>
<path d="M53.7577 510.143H56.8392V511.245H48.8525V510.143H52.4162V498.464L49.0202 500.48L48.4333 499.544L52.6258 496.967H53.7577V510.143Z" fill="url(#paint40_linear_122_130)" fill-opacity="0.6"/>
<path d="M52.5 520.511C53.9953 520.511 55.1273 521.141 55.8959 522.402C56.6785 523.649 57.0698 525.464 57.0698 527.847C57.0698 530.23 56.6785 532.052 55.8959 533.312C55.1273 534.573 53.9953 535.204 52.5 535.204C51.0187 535.204 49.8867 534.573 49.1041 533.312C48.3215 532.052 47.9302 530.23 47.9302 527.847C47.9302 525.478 48.3215 523.663 49.1041 522.402C49.8867 521.141 51.0187 520.511 52.5 520.511ZM49.4185 527.847C49.4185 529.537 49.5723 530.86 49.8797 531.816L54.5334 522.61C54.0442 521.958 53.3664 521.633 52.5 521.633C51.5357 521.633 50.7811 522.145 50.2361 523.171C49.691 524.182 49.4185 525.741 49.4185 527.847ZM52.5 534.061C53.4782 534.061 54.2399 533.555 54.7849 532.543C55.3299 531.518 55.6024 529.953 55.6024 527.847C55.6024 526.059 55.4277 524.674 55.0784 523.69L50.4247 532.98C50.9278 533.7 51.6196 534.061 52.5 534.061Z" fill="url(#paint41_linear_122_130)" fill-opacity="0.6"/>
<path d="M91.4302 306.751C92.9255 306.751 94.0575 307.381 94.8261 308.642C95.6087 309.889 96 311.704 96 314.087C96 316.47 95.6087 318.292 94.8261 319.553C94.0575 320.814 92.9255 321.444 91.4302 321.444C89.9489 321.444 88.8169 320.814 88.0343 319.553C87.2517 318.292 86.8604 316.47 86.8604 314.087C86.8604 311.718 87.2517 309.903 88.0343 308.642C88.8169 307.381 89.9489 306.751 91.4302 306.751ZM88.3487 314.087C88.3487 315.777 88.5024 317.101 88.8099 318.057L93.4636 308.85C92.9744 308.199 92.2966 307.873 91.4302 307.873C90.4659 307.873 89.7113 308.386 89.1663 309.411C88.6212 310.423 88.3487 311.981 88.3487 314.087ZM91.4302 320.301C92.4084 320.301 93.1701 319.795 93.7151 318.784C94.2601 317.759 94.5326 316.193 94.5326 314.087C94.5326 312.3 94.3579 310.914 94.0086 309.931L89.3549 319.22C89.858 319.941 90.5498 320.301 91.4302 320.301Z" fill="url(#paint42_linear_122_130)" fill-opacity="0.6"/>
<path d="M92.6879 343.886H95.7694V344.987H87.7827V343.886H91.3463V332.206L87.9504 334.222L87.3635 333.287L91.556 330.71H92.6879V343.886Z" fill="url(#paint43_linear_122_130)" fill-opacity="0.6"/>
<path d="M92.6879 367.637H95.7694V368.738H87.7827V367.637H91.3463V355.957L87.9504 357.973L87.3635 357.038L91.556 354.461H92.6879V367.637Z" fill="url(#paint44_linear_122_130)" fill-opacity="0.6"/>
<path d="M91.4302 378.004C92.9255 378.004 94.0575 378.635 94.8261 379.895C95.6087 381.142 96 382.957 96 385.34C96 387.723 95.6087 389.545 94.8261 390.806C94.0575 392.067 92.9255 392.697 91.4302 392.697C89.9489 392.697 88.8169 392.067 88.0343 390.806C87.2517 389.545 86.8604 387.723 86.8604 385.34C86.8604 382.971 87.2517 381.156 88.0343 379.895C88.8169 378.635 89.9489 378.004 91.4302 378.004ZM88.3487 385.34C88.3487 387.031 88.5024 388.354 88.8099 389.31L93.4636 380.103C92.9744 379.452 92.2966 379.126 91.4302 379.126C90.4659 379.126 89.7113 379.639 89.1663 380.664C88.6212 381.676 88.3487 383.234 88.3487 385.34ZM91.4302 391.554C92.4084 391.554 93.1701 391.049 93.7151 390.037C94.2601 389.012 94.5326 387.446 94.5326 385.34C94.5326 383.553 94.3579 382.168 94.0086 381.184L89.3549 390.474C89.858 391.194 90.5498 391.554 91.4302 391.554Z" fill="url(#paint45_linear_122_130)" fill-opacity="0.6"/>
<path d="M91.4302 401.755C92.9255 401.755 94.0575 402.386 94.8261 403.646C95.6087 404.893 96 406.708 96 409.091C96 411.474 95.6087 413.296 94.8261 414.557C94.0575 415.818 92.9255 416.448 91.4302 416.448C89.9489 416.448 88.8169 415.818 88.0343 414.557C87.2517 413.296 86.8604 411.474 86.8604 409.091C86.8604 406.722 87.2517 404.907 88.0343 403.646C88.8169 402.386 89.9489 401.755 91.4302 401.755ZM88.3487 409.091C88.3487 410.782 88.5024 412.105 88.8099 413.061L93.4636 403.854C92.9744 403.203 92.2966 402.878 91.4302 402.878C90.4659 402.878 89.7113 403.39 89.1663 404.415C88.6212 405.427 88.3487 406.985 88.3487 409.091ZM91.4302 415.305C92.4084 415.305 93.1701 414.8 93.7151 413.788C94.2601 412.763 94.5326 411.197 94.5326 409.091C94.5326 407.304 94.3579 405.919 94.0086 404.935L89.3549 414.225C89.858 414.945 90.5498 415.305 91.4302 415.305Z" fill="url(#paint46_linear_122_130)" fill-opacity="0.6"/>
<g opacity="0.6">
<path d="M919.93 -17C921.356 -17 922.436 -16.395 923.17 -15.1851C923.916 -13.9885 924.29 -12.2468 924.29 -9.95987C924.29 -7.67299 923.916 -5.9246 923.17 -4.71468C922.436 -3.50476 921.356 -2.8998 919.93 -2.8998C918.517 -2.8998 917.437 -3.50476 916.69 -4.71468C915.943 -5.9246 915.57 -7.67299 915.57 -9.95987C915.57 -12.2335 915.943 -13.9752 916.69 -15.1851C917.437 -16.395 918.517 -17 919.93 -17ZM916.99 -9.95987C916.99 -8.33778 917.137 -7.06804 917.43 -6.15063L921.87 -14.9857C921.403 -15.6106 920.756 -15.923 919.93 -15.923C919.01 -15.923 918.29 -15.4311 917.77 -14.4472C917.25 -13.4766 916.99 -11.9808 916.99 -9.95987ZM919.93 -3.99671C920.863 -3.99671 921.59 -4.482 922.11 -5.4526C922.63 -6.43649 922.89 -7.93891 922.89 -9.95987C922.89 -11.675 922.723 -13.0046 922.39 -13.9486L917.95 -5.03378C918.43 -4.3424 919.09 -3.99671 919.93 -3.99671Z" fill="url(#paint47_linear_122_130)"/>
<path d="M921.13 18.6365H924.07V19.6936H916.45V18.6365H919.85V7.42819L916.61 9.36273L916.05 8.46526L920.05 5.99224H921.13V18.6365Z" fill="url(#paint48_linear_122_130)"/>
<path d="M919.93 28.5856C921.356 28.5856 922.436 29.1906 923.17 30.4005C923.916 31.5971 924.29 33.3389 924.29 35.6257C924.29 37.9126 923.916 39.661 923.17 40.8709C922.436 42.0808 921.356 42.6858 919.93 42.6858C918.517 42.6858 917.437 42.0808 916.69 40.8709C915.943 39.661 915.57 37.9126 915.57 35.6257C915.57 33.3521 915.943 31.6104 916.69 30.4005C917.437 29.1906 918.517 28.5856 919.93 28.5856ZM916.99 35.6257C916.99 37.2478 917.137 38.5176 917.43 39.435L921.87 30.5999C921.403 29.975 920.756 29.6626 919.93 29.6626C919.01 29.6626 918.29 30.1545 917.77 31.1384C917.25 32.109 916.99 33.6048 916.99 35.6257ZM919.93 41.5889C920.863 41.5889 921.59 41.1036 922.11 40.133C922.63 39.1491 922.89 37.6467 922.89 35.6257C922.89 33.9106 922.723 32.581 922.39 31.637L917.95 40.5518C918.43 41.2432 919.09 41.5889 919.93 41.5889Z" fill="url(#paint49_linear_122_130)"/>
<path d="M921.13 64.2221H924.07V65.2792H916.45V64.2221H919.85V53.0138L916.61 54.9483L916.05 54.0509L920.05 51.5778H921.13V64.2221Z" fill="url(#paint50_linear_122_130)"/>
<path d="M921.13 87.015H924.07V88.072H916.45V87.015H919.85V75.8066L916.61 77.7411L916.05 76.8437L920.05 74.3706H921.13V87.015Z" fill="url(#paint51_linear_122_130)"/>
<path d="M919.93 96.964C921.356 96.964 922.436 97.569 923.17 98.7789C923.916 99.9755 924.29 101.717 924.29 104.004C924.29 106.291 923.916 108.039 923.17 109.249C922.436 110.459 921.356 111.064 919.93 111.064C918.517 111.064 917.437 110.459 916.69 109.249C915.943 108.039 915.57 106.291 915.57 104.004C915.57 101.731 915.943 99.9888 916.69 98.7789C917.437 97.569 918.517 96.964 919.93 96.964ZM916.99 104.004C916.99 105.626 917.137 106.896 917.43 107.813L921.87 98.9783C921.403 98.3534 920.756 98.041 919.93 98.041C919.01 98.041 918.29 98.5329 917.77 99.5168C917.25 100.487 916.99 101.983 916.99 104.004ZM919.93 109.967C920.863 109.967 921.59 109.482 922.11 108.511C922.63 107.528 922.89 106.025 922.89 104.004C922.89 102.289 922.723 100.959 922.39 100.015L917.95 108.93C918.43 109.622 919.09 109.967 919.93 109.967Z" fill="url(#paint52_linear_122_130)"/>
<path d="M921.13 132.601H924.07V133.658H916.45V132.601H919.85V121.392L916.61 123.327L916.05 122.429L920.05 119.956H921.13V132.601Z" fill="url(#paint53_linear_122_130)"/>
<path d="M919.93 142.55C921.356 142.55 922.436 143.155 923.17 144.365C923.916 145.561 924.29 147.303 924.29 149.59C924.29 151.877 923.916 153.625 923.17 154.835C922.436 156.045 921.356 156.65 919.93 156.65C918.517 156.65 917.437 156.045 916.69 154.835C915.943 153.625 915.57 151.877 915.57 149.59C915.57 147.316 915.943 145.574 916.69 144.365C917.437 143.155 918.517 142.55 919.93 142.55ZM916.99 149.59C916.99 151.212 917.137 152.482 917.43 153.399L921.87 144.564C921.403 143.939 920.756 143.627 919.93 143.627C919.01 143.627 918.29 144.119 917.77 145.102C917.25 146.073 916.99 147.569 916.99 149.59ZM919.93 155.553C920.863 155.553 921.59 155.068 922.11 154.097C922.63 153.113 922.89 151.611 922.89 149.59C922.89 147.875 922.723 146.545 922.39 145.601L917.95 154.516C918.43 155.207 919.09 155.553 919.93 155.553Z" fill="url(#paint54_linear_122_130)"/>
<path d="M919.93 165.342C921.356 165.342 922.436 165.947 923.17 167.157C923.916 168.354 924.29 170.096 924.29 172.383C924.29 174.669 923.916 176.418 923.17 177.628C922.436 178.838 921.356 179.443 919.93 179.443C918.517 179.443 917.437 178.838 916.69 177.628C915.943 176.418 915.57 174.669 915.57 172.383C915.57 170.109 915.943 168.367 916.69 167.157C917.437 165.947 918.517 165.342 919.93 165.342ZM916.99 172.383C916.99 174.005 917.137 175.274 917.43 176.192L921.87 167.357C921.403 166.732 920.756 166.419 919.93 166.419C919.01 166.419 918.29 166.911 917.77 167.895C917.25 168.866 916.99 170.362 916.99 172.383ZM919.93 178.346C920.863 178.346 921.59 177.86 922.11 176.89C922.63 175.906 922.89 174.404 922.89 172.383C922.89 170.667 922.723 169.338 922.39 168.394L917.95 177.309C918.43 178 919.09 178.346 919.93 178.346Z" fill="url(#paint55_linear_122_130)"/>
<path d="M921.13 200.979H924.07V202.036H916.45V200.979H919.85V189.771L916.61 191.705L916.05 190.808L920.05 188.335H921.13V200.979Z" fill="url(#paint56_linear_122_130)"/>
<path d="M919.93 210.928C921.356 210.928 922.436 211.533 923.17 212.743C923.916 213.94 924.29 215.681 924.29 217.968C924.29 220.255 923.916 222.003 923.17 223.213C922.436 224.423 921.356 225.028 919.93 225.028C918.517 225.028 917.437 224.423 916.69 223.213C915.943 222.003 915.57 220.255 915.57 217.968C915.57 215.695 915.943 213.953 916.69 212.743C917.437 211.533 918.517 210.928 919.93 210.928ZM916.99 217.968C916.99 219.59 917.137 220.86 917.43 221.777L921.87 212.942C921.403 212.317 920.756 212.005 919.93 212.005C919.01 212.005 918.29 212.497 917.77 213.481C917.25 214.451 916.99 215.947 916.99 217.968ZM919.93 223.931C920.863 223.931 921.59 223.446 922.11 222.475C922.63 221.492 922.89 219.989 922.89 217.968C922.89 216.253 922.723 214.923 922.39 213.979L917.95 222.894C918.43 223.586 919.09 223.931 919.93 223.931Z" fill="url(#paint57_linear_122_130)"/>
<path d="M921.13 246.565H924.07V247.622H916.45V246.565H919.85V235.356L916.61 237.291L916.05 236.393L920.05 233.92H921.13V246.565Z" fill="url(#paint58_linear_122_130)"/>
<path d="M921.13 269.357H924.07V270.414H916.45V269.357H919.85V258.149L916.61 260.084L916.05 259.186L920.05 256.713H921.13V269.357Z" fill="url(#paint59_linear_122_130)"/>
<path d="M957.07 28.5856C958.497 28.5856 959.577 29.1906 960.31 30.4005C961.057 31.5971 961.43 33.3389 961.43 35.6257C961.43 37.9126 961.057 39.661 960.31 40.8709C959.577 42.0808 958.497 42.6858 957.07 42.6858C955.657 42.6858 954.577 42.0808 953.83 40.8709C953.084 39.661 952.71 37.9126 952.71 35.6257C952.71 33.3521 953.084 31.6104 953.83 30.4005C954.577 29.1906 955.657 28.5856 957.07 28.5856ZM954.13 35.6257C954.13 37.2478 954.277 38.5176 954.57 39.435L959.01 30.5999C958.543 29.975 957.897 29.6626 957.07 29.6626C956.15 29.6626 955.43 30.1545 954.91 31.1384C954.39 32.109 954.13 33.6048 954.13 35.6257ZM957.07 41.5889C958.003 41.5889 958.73 41.1036 959.25 40.133C959.77 39.1491 960.03 37.6467 960.03 35.6257C960.03 33.9106 959.863 32.581 959.53 31.637L955.09 40.5518C955.57 41.2432 956.23 41.5889 957.07 41.5889Z" fill="url(#paint60_linear_122_130)"/>
<path d="M958.27 64.2221H961.21V65.2792H953.59V64.2221H956.99V53.0138L953.75 54.9483L953.19 54.0509L957.19 51.5778H958.27V64.2221Z" fill="url(#paint61_linear_122_130)"/>
<path d="M957.07 74.1712C958.497 74.1712 959.577 74.7762 960.31 75.9861C961.057 77.1827 961.43 78.9245 961.43 81.2113C961.43 83.4982 961.057 85.2466 960.31 86.4565C959.577 87.6665 958.497 88.2714 957.07 88.2714C955.657 88.2714 954.577 87.6665 953.83 86.4565C953.084 85.2466 952.71 83.4982 952.71 81.2113C952.71 78.9378 953.084 77.196 953.83 75.9861C954.577 74.7762 955.657 74.1712 957.07 74.1712ZM954.13 81.2113C954.13 82.8334 954.277 84.1032 954.57 85.0206L959.01 76.1855C958.543 75.5606 957.897 75.2482 957.07 75.2482C956.15 75.2482 955.43 75.7401 954.91 76.724C954.39 77.6946 954.13 79.1904 954.13 81.2113ZM957.07 87.1745C958.003 87.1745 958.73 86.6892 959.25 85.7186C959.77 84.7347 960.03 83.2323 960.03 81.2113C960.03 79.4962 959.863 78.1666 959.53 77.2226L955.09 86.1374C955.57 86.8288 956.23 87.1745 957.07 87.1745Z" fill="url(#paint62_linear_122_130)"/>
<path d="M957.07 96.964C958.497 96.964 959.577 97.569 960.31 98.7789C961.057 99.9755 961.43 101.717 961.43 104.004C961.43 106.291 961.057 108.039 960.31 109.249C959.577 110.459 958.497 111.064 957.07 111.064C955.657 111.064 954.577 110.459 953.83 109.249C953.084 108.039 952.71 106.291 952.71 104.004C952.71 101.731 953.084 99.9888 953.83 98.7789C954.577 97.569 955.657 96.964 957.07 96.964ZM954.13 104.004C954.13 105.626 954.277 106.896 954.57 107.813L959.01 98.9783C958.543 98.3534 957.897 98.041 957.07 98.041C956.15 98.041 955.43 98.5329 954.91 99.5168C954.39 100.487 954.13 101.983 954.13 104.004ZM957.07 109.967C958.003 109.967 958.73 109.482 959.25 108.511C959.77 107.528 960.03 106.025 960.03 104.004C960.03 102.289 959.863 100.959 959.53 100.015L955.09 108.93C955.57 109.622 956.23 109.967 957.07 109.967Z" fill="url(#paint63_linear_122_130)"/>
<path d="M958.27 132.601H961.21V133.658H953.59V132.601H956.99V121.392L953.75 123.327L953.19 122.429L957.19 119.956H958.27V132.601Z" fill="url(#paint64_linear_122_130)"/>
<path d="M957.07 142.55C958.497 142.55 959.577 143.155 960.31 144.365C961.057 145.561 961.43 147.303 961.43 149.59C961.43 151.877 961.057 153.625 960.31 154.835C959.577 156.045 958.497 156.65 957.07 156.65C955.657 156.65 954.577 156.045 953.83 154.835C953.084 153.625 952.71 151.877 952.71 149.59C952.71 147.316 953.084 145.574 953.83 144.365C954.577 143.155 955.657 142.55 957.07 142.55ZM954.13 149.59C954.13 151.212 954.277 152.482 954.57 153.399L959.01 144.564C958.543 143.939 957.897 143.627 957.07 143.627C956.15 143.627 955.43 144.119 954.91 145.102C954.39 146.073 954.13 147.569 954.13 149.59ZM957.07 155.553C958.003 155.553 958.73 155.068 959.25 154.097C959.77 153.113 960.03 151.611 960.03 149.59C960.03 147.875 959.863 146.545 959.53 145.601L955.09 154.516C955.57 155.207 956.23 155.553 957.07 155.553Z" fill="url(#paint65_linear_122_130)"/>
<path d="M958.27 178.186H961.21V179.243H953.59V178.186H956.99V166.978L953.75 168.912L953.19 168.015L957.19 165.542H958.27V178.186Z" fill="url(#paint66_linear_122_130)"/>
<path d="M957.07 188.135C958.497 188.135 959.577 188.74 960.31 189.95C961.057 191.147 961.43 192.888 961.43 195.175C961.43 197.462 961.057 199.211 960.31 200.421C959.577 201.63 958.497 202.235 957.07 202.235C955.657 202.235 954.577 201.63 953.83 200.421C953.084 199.211 952.71 197.462 952.71 195.175C952.71 192.902 953.084 191.16 953.83 189.95C954.577 188.74 955.657 188.135 957.07 188.135ZM954.13 195.175C954.13 196.797 954.277 198.067 954.57 198.985L959.01 190.15C958.543 189.525 957.897 189.212 957.07 189.212C956.15 189.212 955.43 189.704 954.91 190.688C954.39 191.659 954.13 193.154 954.13 195.175ZM957.07 201.139C958.003 201.139 958.73 200.653 959.25 199.683C959.77 198.699 960.03 197.196 960.03 195.175C960.03 193.46 959.863 192.131 959.53 191.187L955.09 200.101C955.57 200.793 956.23 201.139 957.07 201.139Z" fill="url(#paint67_linear_122_130)"/>
<path d="M957.07 210.928C958.497 210.928 959.577 211.533 960.31 212.743C961.057 213.94 961.43 215.681 961.43 217.968C961.43 220.255 961.057 222.003 960.31 223.213C959.577 224.423 958.497 225.028 957.07 225.028C955.657 225.028 954.577 224.423 953.83 223.213C953.084 222.003 952.71 220.255 952.71 217.968C952.71 215.695 953.084 213.953 953.83 212.743C954.577 211.533 955.657 210.928 957.07 210.928ZM954.13 217.968C954.13 219.59 954.277 220.86 954.57 221.777L959.01 212.942C958.543 212.317 957.897 212.005 957.07 212.005C956.15 212.005 955.43 212.497 954.91 213.481C954.39 214.451 954.13 215.947 954.13 217.968ZM957.07 223.931C958.003 223.931 958.73 223.446 959.25 222.475C959.77 221.492 960.03 219.989 960.03 217.968C960.03 216.253 959.863 214.923 959.53 213.979L955.09 222.894C955.57 223.586 956.23 223.931 957.07 223.931Z" fill="url(#paint68_linear_122_130)"/>
<path d="M958.27 246.565H961.21V247.622H953.59V246.565H956.99V235.356L953.75 237.291L953.19 236.393L957.19 233.92H958.27V246.565Z" fill="url(#paint69_linear_122_130)"/>
<path d="M957.07 256.514C958.497 256.514 959.577 257.119 960.31 258.329C961.057 259.525 961.43 261.267 961.43 263.554C961.43 265.841 961.057 267.589 960.31 268.799C959.577 270.009 958.497 270.614 957.07 270.614C955.657 270.614 954.577 270.009 953.83 268.799C953.084 267.589 952.71 265.841 952.71 263.554C952.71 261.28 953.084 259.538 953.83 258.329C954.577 257.119 955.657 256.514 957.07 256.514ZM954.13 263.554C954.13 265.176 954.277 266.446 954.57 267.363L959.01 258.528C958.543 257.903 957.897 257.591 957.07 257.591C956.15 257.591 955.43 258.083 954.91 259.066C954.39 260.037 954.13 261.533 954.13 263.554ZM957.07 269.517C958.003 269.517 958.73 269.032 959.25 268.061C959.77 267.077 960.03 265.575 960.03 263.554C960.03 261.839 959.863 260.509 959.53 259.565L955.09 268.48C955.57 269.171 956.23 269.517 957.07 269.517Z" fill="url(#paint70_linear_122_130)"/>
<path d="M958.27 292.15H961.21V293.207H953.59V292.15H956.99V280.942L953.75 282.876L953.19 281.979L957.19 279.506H958.27V292.15Z" fill="url(#paint71_linear_122_130)"/>
<path d="M958.27 314.943H961.21V316H953.59V314.943H956.99V303.735L953.75 305.669L953.19 304.772L957.19 302.299H958.27V314.943Z" fill="url(#paint72_linear_122_130)"/>
<path d="M901.36 51.3784C902.786 51.3784 903.866 51.9834 904.599 53.1933C905.346 54.3899 905.719 56.1317 905.719 58.4185C905.719 60.7054 905.346 62.4538 904.599 63.6637C903.866 64.8736 902.786 65.4786 901.36 65.4786C899.946 65.4786 898.867 64.8736 898.12 63.6637C897.373 62.4538 897 60.7054 897 58.4185C897 56.145 897.373 54.4032 898.12 53.1933C898.867 51.9834 899.946 51.3784 901.36 51.3784ZM898.42 58.4185C898.42 60.0406 898.567 61.3104 898.86 62.2278L903.3 53.3927C902.833 52.7678 902.186 52.4554 901.36 52.4554C900.44 52.4554 899.72 52.9473 899.2 53.9312C898.68 54.9018 898.42 56.3976 898.42 58.4185ZM901.36 64.3817C902.293 64.3817 903.02 63.8964 903.54 62.9258C904.06 61.9419 904.319 60.4395 904.319 58.4185C904.319 56.7034 904.153 55.3738 903.82 54.4298L899.38 63.3446C899.86 64.036 900.52 64.3817 901.36 64.3817Z" fill="url(#paint73_linear_122_130)"/>
<path d="M901.36 74.1712C902.786 74.1712 903.866 74.7762 904.599 75.9861C905.346 77.1827 905.719 78.9245 905.719 81.2113C905.719 83.4982 905.346 85.2466 904.599 86.4565C903.866 87.6665 902.786 88.2714 901.36 88.2714C899.946 88.2714 898.867 87.6665 898.12 86.4565C897.373 85.2466 897 83.4982 897 81.2113C897 78.9378 897.373 77.196 898.12 75.9861C898.867 74.7762 899.946 74.1712 901.36 74.1712ZM898.42 81.2113C898.42 82.8334 898.567 84.1032 898.86 85.0206L903.3 76.1855C902.833 75.5606 902.186 75.2482 901.36 75.2482C900.44 75.2482 899.72 75.7401 899.2 76.724C898.68 77.6946 898.42 79.1904 898.42 81.2113ZM901.36 87.1745C902.293 87.1745 903.02 86.6892 903.54 85.7186C904.06 84.7347 904.319 83.2323 904.319 81.2113C904.319 79.4962 904.153 78.1666 903.82 77.2226L899.38 86.1374C899.86 86.8288 900.52 87.1745 901.36 87.1745Z" fill="url(#paint74_linear_122_130)"/>
<path d="M902.56 109.808H905.499V110.865H897.88V109.808H901.28V98.5994L898.04 100.534L897.48 99.6365L901.48 97.1635H902.56V109.808Z" fill="url(#paint75_linear_122_130)"/>
<path d="M901.36 119.757C902.786 119.757 903.866 120.362 904.599 121.572C905.346 122.768 905.719 124.51 905.719 126.797C905.719 129.084 905.346 130.832 904.599 132.042C903.866 133.252 902.786 133.857 901.36 133.857C899.946 133.857 898.867 133.252 898.12 132.042C897.373 130.832 897 129.084 897 126.797C897 124.523 897.373 122.782 898.12 121.572C898.867 120.362 899.946 119.757 901.36 119.757ZM898.42 126.797C898.42 128.419 898.567 129.689 898.86 130.606L903.3 121.771C902.833 121.146 902.186 120.834 901.36 120.834C900.44 120.834 899.72 121.326 899.2 122.31C898.68 123.28 898.42 124.776 898.42 126.797ZM901.36 132.76C902.293 132.76 903.02 132.275 903.54 131.304C904.06 130.32 904.319 128.818 904.319 126.797C904.319 125.082 904.153 123.752 903.82 122.808L899.38 131.723C899.86 132.414 900.52 132.76 901.36 132.76Z" fill="url(#paint76_linear_122_130)"/>
<path d="M902.56 155.393H905.499V156.45H897.88V155.393H901.28V144.185L898.04 146.12L897.48 145.222L901.48 142.749H902.56V155.393Z" fill="url(#paint77_linear_122_130)"/>
<path d="M902.56 178.186H905.499V179.243H897.88V178.186H901.28V166.978L898.04 168.912L897.48 168.015L901.48 165.542H902.56V178.186Z" fill="url(#paint78_linear_122_130)"/>
<path d="M939.7 18.6365H942.64V19.6936H935.02V18.6365H938.42V7.42819L935.18 9.36273L934.62 8.46526L938.62 5.99224H939.7V18.6365Z" fill="url(#paint79_linear_122_130)"/>
<path d="M938.5 28.5856C939.927 28.5856 941.006 29.1906 941.74 30.4005C942.486 31.5971 942.86 33.3389 942.86 35.6257C942.86 37.9126 942.486 39.661 941.74 40.8709C941.006 42.0808 939.927 42.6858 938.5 42.6858C937.087 42.6858 936.007 42.0808 935.26 40.8709C934.514 39.661 934.14 37.9126 934.14 35.6257C934.14 33.3521 934.514 31.6104 935.26 30.4005C936.007 29.1906 937.087 28.5856 938.5 28.5856ZM935.56 35.6257C935.56 37.2478 935.707 38.5176 936 39.435L940.44 30.5999C939.973 29.975 939.327 29.6626 938.5 29.6626C937.58 29.6626 936.86 30.1545 936.34 31.1384C935.82 32.109 935.56 33.6048 935.56 35.6257ZM938.5 41.5889C939.433 41.5889 940.16 41.1036 940.68 40.133C941.2 39.1491 941.46 37.6467 941.46 35.6257C941.46 33.9106 941.293 32.581 940.96 31.637L936.52 40.5518C937 41.2432 937.66 41.5889 938.5 41.5889Z" fill="url(#paint80_linear_122_130)"/>
<path d="M939.7 64.2221H942.64V65.2792H935.02V64.2221H938.42V53.0138L935.18 54.9483L934.62 54.0509L938.62 51.5778H939.7V64.2221Z" fill="url(#paint81_linear_122_130)"/>
<path d="M939.7 87.015H942.64V88.072H935.02V87.015H938.42V75.8066L935.18 77.7411L934.62 76.8437L938.62 74.3706H939.7V87.015Z" fill="url(#paint82_linear_122_130)"/>
<path d="M938.5 96.964C939.927 96.964 941.006 97.569 941.74 98.7789C942.486 99.9755 942.86 101.717 942.86 104.004C942.86 106.291 942.486 108.039 941.74 109.249C941.006 110.459 939.927 111.064 938.5 111.064C937.087 111.064 936.007 110.459 935.26 109.249C934.514 108.039 934.14 106.291 934.14 104.004C934.14 101.731 934.514 99.9888 935.26 98.7789C936.007 97.569 937.087 96.964 938.5 96.964ZM935.56 104.004C935.56 105.626 935.707 106.896 936 107.813L940.44 98.9783C939.973 98.3534 939.327 98.041 938.5 98.041C937.58 98.041 936.86 98.5329 936.34 99.5168C935.82 100.487 935.56 101.983 935.56 104.004ZM938.5 109.967C939.433 109.967 940.16 109.482 940.68 108.511C941.2 107.528 941.46 106.025 941.46 104.004C941.46 102.289 941.293 100.959 940.96 100.015L936.52 108.93C937 109.622 937.66 109.967 938.5 109.967Z" fill="url(#paint83_linear_122_130)"/>
<path d="M939.7 132.601H942.64V133.658H935.02V132.601H938.42V121.392L935.18 123.327L934.62 122.429L938.62 119.956H939.7V132.601Z" fill="url(#paint84_linear_122_130)"/>
<path d="M939.7 155.393H942.64V156.45H935.02V155.393H938.42V144.185L935.18 146.12L934.62 145.222L938.62 142.749H939.7V155.393Z" fill="url(#paint85_linear_122_130)"/>
<path d="M938.5 165.342C939.927 165.342 941.006 165.947 941.74 167.157C942.486 168.354 942.86 170.096 942.86 172.383C942.86 174.669 942.486 176.418 941.74 177.628C941.006 178.838 939.927 179.443 938.5 179.443C937.087 179.443 936.007 178.838 935.26 177.628C934.514 176.418 934.14 174.669 934.14 172.383C934.14 170.109 934.514 168.367 935.26 167.157C936.007 165.947 937.087 165.342 938.5 165.342ZM935.56 172.383C935.56 174.005 935.707 175.274 936 176.192L940.44 167.357C939.973 166.732 939.327 166.419 938.5 166.419C937.58 166.419 936.86 166.911 936.34 167.895C935.82 168.866 935.56 170.362 935.56 172.383ZM938.5 178.346C939.433 178.346 940.16 177.86 940.68 176.89C941.2 175.906 941.46 174.404 941.46 172.383C941.46 170.667 941.293 169.338 940.96 168.394L936.52 177.309C937 178 937.66 178.346 938.5 178.346Z" fill="url(#paint86_linear_122_130)"/>
<path d="M939.7 200.979H942.64V202.036H935.02V200.979H938.42V189.771L935.18 191.705L934.62 190.808L938.62 188.335H939.7V200.979Z" fill="url(#paint87_linear_122_130)"/>
<path d="M938.5 210.928C939.927 210.928 941.006 211.533 941.74 212.743C942.486 213.94 942.86 215.681 942.86 217.968C942.86 220.255 942.486 222.003 941.74 223.213C941.006 224.423 939.927 225.028 938.5 225.028C937.087 225.028 936.007 224.423 935.26 223.213C934.514 222.003 934.14 220.255 934.14 217.968C934.14 215.695 934.514 213.953 935.26 212.743C936.007 211.533 937.087 210.928 938.5 210.928ZM935.56 217.968C935.56 219.59 935.707 220.86 936 221.777L940.44 212.942C939.973 212.317 939.327 212.005 938.5 212.005C937.58 212.005 936.86 212.497 936.34 213.481C935.82 214.451 935.56 215.947 935.56 217.968ZM938.5 223.931C939.433 223.931 940.16 223.446 940.68 222.475C941.2 221.492 941.46 219.989 941.46 217.968C941.46 216.253 941.293 214.923 940.96 213.979L936.52 222.894C937 223.586 937.66 223.931 938.5 223.931Z" fill="url(#paint88_linear_122_130)"/>
<path d="M975.64 5.7928C977.067 5.7928 978.147 6.39776 978.88 7.60768C979.627 8.8043 980 10.546 980 12.8329C980 15.1198 979.627 16.8682 978.88 18.0781C978.147 19.288 977.067 19.893 975.64 19.893C974.227 19.893 973.147 19.288 972.401 18.0781C971.654 16.8682 971.281 15.1198 971.281 12.8329C971.281 10.5593 971.654 8.8176 972.401 7.60768C973.147 6.39776 974.227 5.7928 975.64 5.7928ZM972.701 12.8329C972.701 14.455 972.847 15.7248 973.14 16.6422L977.58 7.80712C977.114 7.18221 976.467 6.86976 975.64 6.86976C974.72 6.86976 974 7.36171 973.48 8.3456C972.96 9.31619 972.701 10.812 972.701 12.8329ZM975.64 18.7961C976.574 18.7961 977.3 18.3108 977.82 17.3402C978.34 16.3563 978.6 14.8539 978.6 12.8329C978.6 11.1178 978.433 9.78819 978.1 8.84419L973.66 17.759C974.14 18.4504 974.8 18.7961 975.64 18.7961Z" fill="url(#paint89_linear_122_130)"/>
<path d="M976.84 41.4293H979.78V42.4864H972.161V41.4293H975.56V30.221L972.321 32.1555L971.761 31.2581L975.76 28.785H976.84V41.4293Z" fill="url(#paint90_linear_122_130)"/>
<path d="M976.84 64.2221H979.78V65.2792H972.161V64.2221H975.56V53.0138L972.321 54.9483L971.761 54.0509L975.76 51.5778H976.84V64.2221Z" fill="url(#paint91_linear_122_130)"/>
<path d="M975.64 74.1712C977.067 74.1712 978.147 74.7762 978.88 75.9861C979.627 77.1827 980 78.9245 980 81.2113C980 83.4982 979.627 85.2466 978.88 86.4565C978.147 87.6665 977.067 88.2714 975.64 88.2714C974.227 88.2714 973.147 87.6665 972.401 86.4565C971.654 85.2466 971.281 83.4982 971.281 81.2113C971.281 78.9378 971.654 77.196 972.401 75.9861C973.147 74.7762 974.227 74.1712 975.64 74.1712ZM972.701 81.2113C972.701 82.8334 972.847 84.1032 973.14 85.0206L977.58 76.1855C977.114 75.5606 976.467 75.2482 975.64 75.2482C974.72 75.2482 974 75.7401 973.48 76.724C972.96 77.6946 972.701 79.1904 972.701 81.2113ZM975.64 87.1745C976.574 87.1745 977.3 86.6892 977.82 85.7186C978.34 84.7347 978.6 83.2323 978.6 81.2113C978.6 79.4962 978.433 78.1666 978.1 77.2226L973.66 86.1374C974.14 86.8288 974.8 87.1745 975.64 87.1745Z" fill="url(#paint92_linear_122_130)"/>
<path d="M975.64 96.964C977.067 96.964 978.147 97.569 978.88 98.7789C979.627 99.9755 980 101.717 980 104.004C980 106.291 979.627 108.039 978.88 109.249C978.147 110.459 977.067 111.064 975.64 111.064C974.227 111.064 973.147 110.459 972.401 109.249C971.654 108.039 971.281 106.291 971.281 104.004C971.281 101.731 971.654 99.9888 972.401 98.7789C973.147 97.569 974.227 96.964 975.64 96.964ZM972.701 104.004C972.701 105.626 972.847 106.896 973.14 107.813L977.58 98.9783C977.114 98.3534 976.467 98.041 975.64 98.041C974.72 98.041 974 98.5329 973.48 99.5168C972.96 100.487 972.701 101.983 972.701 104.004ZM975.64 109.967C976.574 109.967 977.3 109.482 977.82 108.511C978.34 107.528 978.6 106.025 978.6 104.004C978.6 102.289 978.433 100.959 978.1 100.015L973.66 108.93C974.14 109.622 974.8 109.967 975.64 109.967Z" fill="url(#paint93_linear_122_130)"/>
</g>
</g>
<defs>
<filter id="filter0_f_122_130" x="-558.19" y="-703.19" width="2141.38" height="1500.38" filterUnits="userSpaceOnUse" color-interpolation-filters="sRGB">
<feFlood flood-opacity="0" result="BackgroundImageFix"/>
<feBlend mode="normal" in="SourceGraphic" in2="BackgroundImageFix" result="shape"/>
<feGaussianBlur stdDeviation="200.095" result="effect1_foregroundBlur_122_130"/>
</filter>
<linearGradient id="paint0_linear_122_130" x1="52.5" y1="283" x2="52.5" y2="594.381" gradientUnits="userSpaceOnUse">
<stop stop-color="#F7DD43"/>
<stop offset="1" stop-color="#F7DD43" stop-opacity="0"/>
</linearGradient>
<linearGradient id="paint1_linear_122_130" x1="52.5" y1="283" x2="52.5" y2="594.381" gradientUnits="userSpaceOnUse">
<stop stop-color="#F7DD43"/>
<stop offset="1" stop-color="#F7DD43" stop-opacity="0"/>
</linearGradient>
<linearGradient id="paint2_linear_122_130" x1="52.5" y1="283" x2="52.5" y2="594.381" gradientUnits="userSpaceOnUse">
<stop stop-color="#F7DD43"/>
<stop offset="1" stop-color="#F7DD43" stop-opacity="0"/>
</linearGradient>
<linearGradient id="paint3_linear_122_130" x1="52.5" y1="283" x2="52.5" y2="594.381" gradientUnits="userSpaceOnUse">
<stop stop-color="#F7DD43"/>
<stop offset="1" stop-color="#F7DD43" stop-opacity="0"/>
</linearGradient>
<linearGradient id="paint4_linear_122_130" x1="52.5" y1="283" x2="52.5" y2="594.381" gradientUnits="userSpaceOnUse">
<stop stop-color="#F7DD43"/>
<stop offset="1" stop-color="#F7DD43" stop-opacity="0"/>
</linearGradient>
<linearGradient id="paint5_linear_122_130" x1="52.5" y1="283" x2="52.5" y2="594.381" gradientUnits="userSpaceOnUse">
<stop stop-color="#F7DD43"/>
<stop offset="1" stop-color="#F7DD43" stop-opacity="0"/>
</linearGradient>
<linearGradient id="paint6_linear_122_130" x1="52.5" y1="283" x2="52.5" y2="594.381" gradientUnits="userSpaceOnUse">
<stop stop-color="#F7DD43"/>
<stop offset="1" stop-color="#F7DD43" stop-opacity="0"/>
</linearGradient>
<linearGradient id="paint7_linear_122_130" x1="52.5" y1="283" x2="52.5" y2="594.381" gradientUnits="userSpaceOnUse">
<stop stop-color="#F7DD43"/>
<stop offset="1" stop-color="#F7DD43" stop-opacity="0"/>
</linearGradient>
<linearGradient id="paint8_linear_122_130" x1="52.5" y1="283" x2="52.5" y2="594.381" gradientUnits="userSpaceOnUse">
<stop stop-color="#F7DD43"/>
<stop offset="1" stop-color="#F7DD43" stop-opacity="0"/>
</linearGradient>
<linearGradient id="paint9_linear_122_130" x1="52.5" y1="283" x2="52.5" y2="594.381" gradientUnits="userSpaceOnUse">
<stop stop-color="#F7DD43"/>
<stop offset="1" stop-color="#F7DD43" stop-opacity="0"/>
</linearGradient>
<linearGradient id="paint10_linear_122_130" x1="52.5" y1="283" x2="52.5" y2="594.381" gradientUnits="userSpaceOnUse">
<stop stop-color="#F7DD43"/>
<stop offset="1" stop-color="#F7DD43" stop-opacity="0"/>
</linearGradient>
<linearGradient id="paint11_linear_122_130" x1="52.5" y1="283" x2="52.5" y2="594.381" gradientUnits="userSpaceOnUse">
<stop stop-color="#F7DD43"/>
<stop offset="1" stop-color="#F7DD43" stop-opacity="0"/>
</linearGradient>
<linearGradient id="paint12_linear_122_130" x1="52.5" y1="283" x2="52.5" y2="594.381" gradientUnits="userSpaceOnUse">
<stop stop-color="#F7DD43"/>
<stop offset="1" stop-color="#F7DD43" stop-opacity="0"/>
</linearGradient>
<linearGradient id="paint13_linear_122_130" x1="52.5" y1="283" x2="52.5" y2="594.381" gradientUnits="userSpaceOnUse">
<stop stop-color="#F7DD43"/>
<stop offset="1" stop-color="#F7DD43" stop-opacity="0"/>
</linearGradient>
<linearGradient id="paint14_linear_122_130" x1="52.5" y1="283" x2="52.5" y2="594.381" gradientUnits="userSpaceOnUse">
<stop stop-color="#F7DD43"/>
<stop offset="1" stop-color="#F7DD43" stop-opacity="0"/>
</linearGradient>
<linearGradient id="paint15_linear_122_130" x1="52.5" y1="283" x2="52.5" y2="594.381" gradientUnits="userSpaceOnUse">
<stop stop-color="#F7DD43"/>
<stop offset="1" stop-color="#F7DD43" stop-opacity="0"/>
</linearGradient>
<linearGradient id="paint16_linear_122_130" x1="52.5" y1="283" x2="52.5" y2="594.381" gradientUnits="userSpaceOnUse">
<stop stop-color="#F7DD43"/>
<stop offset="1" stop-color="#F7DD43" stop-opacity="0"/>
</linearGradient>
<linearGradient id="paint17_linear_122_130" x1="52.5" y1="283" x2="52.5" y2="594.381" gradientUnits="userSpaceOnUse">
<stop stop-color="#F7DD43"/>
<stop offset="1" stop-color="#F7DD43" stop-opacity="0"/>
</linearGradient>
<linearGradient id="paint18_linear_122_130" x1="52.5" y1="283" x2="52.5" y2="594.381" gradientUnits="userSpaceOnUse">
<stop stop-color="#F7DD43"/>
<stop offset="1" stop-color="#F7DD43" stop-opacity="0"/>
</linearGradient>
<linearGradient id="paint19_linear_122_130" x1="52.5" y1="283" x2="52.5" y2="594.381" gradientUnits="userSpaceOnUse">
<stop stop-color="#F7DD43"/>
<stop offset="1" stop-color="#F7DD43" stop-opacity="0"/>
</linearGradient>
<linearGradient id="paint20_linear_122_130" x1="52.5" y1="283" x2="52.5" y2="594.381" gradientUnits="userSpaceOnUse">
<stop stop-color="#F7DD43"/>
<stop offset="1" stop-color="#F7DD43" stop-opacity="0"/>
</linearGradient>
<linearGradient id="paint21_linear_122_130" x1="52.5" y1="283" x2="52.5" y2="594.381" gradientUnits="userSpaceOnUse">
<stop stop-color="#F7DD43"/>
<stop offset="1" stop-color="#F7DD43" stop-opacity="0"/>
</linearGradient>
<linearGradient id="paint22_linear_122_130" x1="52.5" y1="283" x2="52.5" y2="594.381" gradientUnits="userSpaceOnUse">
<stop stop-color="#F7DD43"/>
<stop offset="1" stop-color="#F7DD43" stop-opacity="0"/>
</linearGradient>
<linearGradient id="paint23_linear_122_130" x1="52.5" y1="283" x2="52.5" y2="594.381" gradientUnits="userSpaceOnUse">
<stop stop-color="#F7DD43"/>
<stop offset="1" stop-color="#F7DD43" stop-opacity="0"/>
</linearGradient>
<linearGradient id="paint24_linear_122_130" x1="52.5" y1="283" x2="52.5" y2="594.381" gradientUnits="userSpaceOnUse">
<stop stop-color="#F7DD43"/>
<stop offset="1" stop-color="#F7DD43" stop-opacity="0"/>
</linearGradient>
<linearGradient id="paint25_linear_122_130" x1="52.5" y1="283" x2="52.5" y2="594.381" gradientUnits="userSpaceOnUse">
<stop stop-color="#F7DD43"/>
<stop offset="1" stop-color="#F7DD43" stop-opacity="0"/>
</linearGradient>
<linearGradient id="paint26_linear_122_130" x1="52.5" y1="283" x2="52.5" y2="594.381" gradientUnits="userSpaceOnUse">
<stop stop-color="#F7DD43"/>
<stop offset="1" stop-color="#F7DD43" stop-opacity="0"/>
</linearGradient>
<linearGradient id="paint27_linear_122_130" x1="52.5" y1="283" x2="52.5" y2="594.381" gradientUnits="userSpaceOnUse">
<stop stop-color="#F7DD43"/>
<stop offset="1" stop-color="#F7DD43" stop-opacity="0"/>
</linearGradient>
<linearGradient id="paint28_linear_122_130" x1="52.5" y1="283" x2="52.5" y2="594.381" gradientUnits="userSpaceOnUse">
<stop stop-color="#F7DD43"/>
<stop offset="1" stop-color="#F7DD43" stop-opacity="0"/>
</linearGradient>
<linearGradient id="paint29_linear_122_130" x1="52.5" y1="283" x2="52.5" y2="594.381" gradientUnits="userSpaceOnUse">
<stop stop-color="#F7DD43"/>
<stop offset="1" stop-color="#F7DD43" stop-opacity="0"/>
</linearGradient>
<linearGradient id="paint30_linear_122_130" x1="52.5" y1="283" x2="52.5" y2="594.381" gradientUnits="userSpaceOnUse">
<stop stop-color="#F7DD43"/>
<stop offset="1" stop-color="#F7DD43" stop-opacity="0"/>
</linearGradient>
<linearGradient id="paint31_linear_122_130" x1="52.5" y1="283" x2="52.5" y2="594.381" gradientUnits="userSpaceOnUse">
<stop stop-color="#F7DD43"/>
<stop offset="1" stop-color="#F7DD43" stop-opacity="0"/>
</linearGradient>
<linearGradient id="paint32_linear_122_130" x1="52.5" y1="283" x2="52.5" y2="594.381" gradientUnits="userSpaceOnUse">
<stop stop-color="#F7DD43"/>
<stop offset="1" stop-color="#F7DD43" stop-opacity="0"/>
</linearGradient>
<linearGradient id="paint33_linear_122_130" x1="52.5" y1="283" x2="52.5" y2="594.381" gradientUnits="userSpaceOnUse">
<stop stop-color="#F7DD43"/>
<stop offset="1" stop-color="#F7DD43" stop-opacity="0"/>
</linearGradient>
<linearGradient id="paint34_linear_122_130" x1="52.5" y1="283" x2="52.5" y2="594.381" gradientUnits="userSpaceOnUse">
<stop stop-color="#F7DD43"/>
<stop offset="1" stop-color="#F7DD43" stop-opacity="0"/>
</linearGradient>
<linearGradient id="paint35_linear_122_130" x1="52.5" y1="283" x2="52.5" y2="594.381" gradientUnits="userSpaceOnUse">
<stop stop-color="#F7DD43"/>
<stop offset="1" stop-color="#F7DD43" stop-opacity="0"/>
</linearGradient>
<linearGradient id="paint36_linear_122_130" x1="52.5" y1="283" x2="52.5" y2="594.381" gradientUnits="userSpaceOnUse">
<stop stop-color="#F7DD43"/>
<stop offset="1" stop-color="#F7DD43" stop-opacity="0"/>
</linearGradient>
<linearGradient id="paint37_linear_122_130" x1="52.5" y1="283" x2="52.5" y2="594.381" gradientUnits="userSpaceOnUse">
<stop stop-color="#F7DD43"/>
<stop offset="1" stop-color="#F7DD43" stop-opacity="0"/>
</linearGradient>
<linearGradient id="paint38_linear_122_130" x1="52.5" y1="283" x2="52.5" y2="594.381" gradientUnits="userSpaceOnUse">
<stop stop-color="#F7DD43"/>
<stop offset="1" stop-color="#F7DD43" stop-opacity="0"/>
</linearGradient>
<linearGradient id="paint39_linear_122_130" x1="52.5" y1="283" x2="52.5" y2="594.381" gradientUnits="userSpaceOnUse">
<stop stop-color="#F7DD43"/>
<stop offset="1" stop-color="#F7DD43" stop-opacity="0"/>
</linearGradient>
<linearGradient id="paint40_linear_122_130" x1="52.5" y1="283" x2="52.5" y2="594.381" gradientUnits="userSpaceOnUse">
<stop stop-color="#F7DD43"/>
<stop offset="1" stop-color="#F7DD43" stop-opacity="0"/>
</linearGradient>
<linearGradient id="paint41_linear_122_130" x1="52.5" y1="283" x2="52.5" y2="594.381" gradientUnits="userSpaceOnUse">
<stop stop-color="#F7DD43"/>
<stop offset="1" stop-color="#F7DD43" stop-opacity="0"/>
</linearGradient>
<linearGradient id="paint42_linear_122_130" x1="52.5" y1="283" x2="52.5" y2="594.381" gradientUnits="userSpaceOnUse">
<stop stop-color="#F7DD43"/>
<stop offset="1" stop-color="#F7DD43" stop-opacity="0"/>
</linearGradient>
<linearGradient id="paint43_linear_122_130" x1="52.5" y1="283" x2="52.5" y2="594.381" gradientUnits="userSpaceOnUse">
<stop stop-color="#F7DD43"/>
<stop offset="1" stop-color="#F7DD43" stop-opacity="0"/>
</linearGradient>
<linearGradient id="paint44_linear_122_130" x1="52.5" y1="283" x2="52.5" y2="594.381" gradientUnits="userSpaceOnUse">
<stop stop-color="#F7DD43"/>
<stop offset="1" stop-color="#F7DD43" stop-opacity="0"/>
</linearGradient>
<linearGradient id="paint45_linear_122_130" x1="52.5" y1="283" x2="52.5" y2="594.381" gradientUnits="userSpaceOnUse">
<stop stop-color="#F7DD43"/>
<stop offset="1" stop-color="#F7DD43" stop-opacity="0"/>
</linearGradient>
<linearGradient id="paint46_linear_122_130" x1="52.5" y1="283" x2="52.5" y2="594.381" gradientUnits="userSpaceOnUse">
<stop stop-color="#F7DD43"/>
<stop offset="1" stop-color="#F7DD43" stop-opacity="0"/>
</linearGradient>
<linearGradient id="paint47_linear_122_130" x1="938.5" y1="-17" x2="938.5" y2="281.818" gradientUnits="userSpaceOnUse">
<stop stop-color="#F7DD43"/>
<stop offset="1" stop-color="#F7DD43" stop-opacity="0"/>
</linearGradient>
<linearGradient id="paint48_linear_122_130" x1="938.5" y1="-17" x2="938.5" y2="281.818" gradientUnits="userSpaceOnUse">
<stop stop-color="#F7DD43"/>
<stop offset="1" stop-color="#F7DD43" stop-opacity="0"/>
</linearGradient>
<linearGradient id="paint49_linear_122_130" x1="938.5" y1="-17" x2="938.5" y2="281.818" gradientUnits="userSpaceOnUse">
<stop stop-color="#F7DD43"/>
<stop offset="1" stop-color="#F7DD43" stop-opacity="0"/>
</linearGradient>
<linearGradient id="paint50_linear_122_130" x1="938.5" y1="-17" x2="938.5" y2="281.818" gradientUnits="userSpaceOnUse">
<stop stop-color="#F7DD43"/>
<stop offset="1" stop-color="#F7DD43" stop-opacity="0"/>
</linearGradient>
<linearGradient id="paint51_linear_122_130" x1="938.5" y1="-17" x2="938.5" y2="281.818" gradientUnits="userSpaceOnUse">
<stop stop-color="#F7DD43"/>
<stop offset="1" stop-color="#F7DD43" stop-opacity="0"/>
</linearGradient>
<linearGradient id="paint52_linear_122_130" x1="938.5" y1="-17" x2="938.5" y2="281.818" gradientUnits="userSpaceOnUse">
<stop stop-color="#F7DD43"/>
<stop offset="1" stop-color="#F7DD43" stop-opacity="0"/>
</linearGradient>
<linearGradient id="paint53_linear_122_130" x1="938.5" y1="-17" x2="938.5" y2="281.818" gradientUnits="userSpaceOnUse">
<stop stop-color="#F7DD43"/>
<stop offset="1" stop-color="#F7DD43" stop-opacity="0"/>
</linearGradient>
<linearGradient id="paint54_linear_122_130" x1="938.5" y1="-17" x2="938.5" y2="281.818" gradientUnits="userSpaceOnUse">
<stop stop-color="#F7DD43"/>
<stop offset="1" stop-color="#F7DD43" stop-opacity="0"/>
</linearGradient>
<linearGradient id="paint55_linear_122_130" x1="938.5" y1="-17" x2="938.5" y2="281.818" gradientUnits="userSpaceOnUse">
<stop stop-color="#F7DD43"/>
<stop offset="1" stop-color="#F7DD43" stop-opacity="0"/>
</linearGradient>
<linearGradient id="paint56_linear_122_130" x1="938.5" y1="-17" x2="938.5" y2="281.818" gradientUnits="userSpaceOnUse">
<stop stop-color="#F7DD43"/>
<stop offset="1" stop-color="#F7DD43" stop-opacity="0"/>
</linearGradient>
<linearGradient id="paint57_linear_122_130" x1="938.5" y1="-17" x2="938.5" y2="281.818" gradientUnits="userSpaceOnUse">
<stop stop-color="#F7DD43"/>
<stop offset="1" stop-color="#F7DD43" stop-opacity="0"/>
</linearGradient>
<linearGradient id="paint58_linear_122_130" x1="938.5" y1="-17" x2="938.5" y2="281.818" gradientUnits="userSpaceOnUse">
<stop stop-color="#F7DD43"/>
<stop offset="1" stop-color="#F7DD43" stop-opacity="0"/>
</linearGradient>
<linearGradient id="paint59_linear_122_130" x1="938.5" y1="-17" x2="938.5" y2="281.818" gradientUnits="userSpaceOnUse">
<stop stop-color="#F7DD43"/>
<stop offset="1" stop-color="#F7DD43" stop-opacity="0"/>
</linearGradient>
<linearGradient id="paint60_linear_122_130" x1="938.5" y1="-17" x2="938.5" y2="281.818" gradientUnits="userSpaceOnUse">
<stop stop-color="#F7DD43"/>
<stop offset="1" stop-color="#F7DD43" stop-opacity="0"/>
</linearGradient>
<linearGradient id="paint61_linear_122_130" x1="938.5" y1="-17" x2="938.5" y2="281.818" gradientUnits="userSpaceOnUse">
<stop stop-color="#F7DD43"/>
<stop offset="1" stop-color="#F7DD43" stop-opacity="0"/>
</linearGradient>
<linearGradient id="paint62_linear_122_130" x1="938.5" y1="-17" x2="938.5" y2="281.818" gradientUnits="userSpaceOnUse">
<stop stop-color="#F7DD43"/>
<stop offset="1" stop-color="#F7DD43" stop-opacity="0"/>
</linearGradient>
<linearGradient id="paint63_linear_122_130" x1="938.5" y1="-17" x2="938.5" y2="281.818" gradientUnits="userSpaceOnUse">
<stop stop-color="#F7DD43"/>
<stop offset="1" stop-color="#F7DD43" stop-opacity="0"/>
</linearGradient>
<linearGradient id="paint64_linear_122_130" x1="938.5" y1="-17" x2="938.5" y2="281.818" gradientUnits="userSpaceOnUse">
<stop stop-color="#F7DD43"/>
<stop offset="1" stop-color="#F7DD43" stop-opacity="0"/>
</linearGradient>
<linearGradient id="paint65_linear_122_130" x1="938.5" y1="-17" x2="938.5" y2="281.818" gradientUnits="userSpaceOnUse">
<stop stop-color="#F7DD43"/>
<stop offset="1" stop-color="#F7DD43" stop-opacity="0"/>
</linearGradient>
<linearGradient id="paint66_linear_122_130" x1="938.5" y1="-17" x2="938.5" y2="281.818" gradientUnits="userSpaceOnUse">
<stop stop-color="#F7DD43"/>
<stop offset="1" stop-color="#F7DD43" stop-opacity="0"/>
</linearGradient>
<linearGradient id="paint67_linear_122_130" x1="938.5" y1="-17" x2="938.5" y2="281.818" gradientUnits="userSpaceOnUse">
<stop stop-color="#F7DD43"/>
<stop offset="1" stop-color="#F7DD43" stop-opacity="0"/>
</linearGradient>
<linearGradient id="paint68_linear_122_130" x1="938.5" y1="-17" x2="938.5" y2="281.818" gradientUnits="userSpaceOnUse">
<stop stop-color="#F7DD43"/>
<stop offset="1" stop-color="#F7DD43" stop-opacity="0"/>
</linearGradient>
<linearGradient id="paint69_linear_122_130" x1="938.5" y1="-17" x2="938.5" y2="281.818" gradientUnits="userSpaceOnUse">
<stop stop-color="#F7DD43"/>
<stop offset="1" stop-color="#F7DD43" stop-opacity="0"/>
</linearGradient>
<linearGradient id="paint70_linear_122_130" x1="938.5" y1="-17" x2="938.5" y2="281.818" gradientUnits="userSpaceOnUse">
<stop stop-color="#F7DD43"/>
<stop offset="1" stop-color="#F7DD43" stop-opacity="0"/>
</linearGradient>
<linearGradient id="paint71_linear_122_130" x1="938.5" y1="-17" x2="938.5" y2="281.818" gradientUnits="userSpaceOnUse">
<stop stop-color="#F7DD43"/>
<stop offset="1" stop-color="#F7DD43" stop-opacity="0"/>
</linearGradient>
<linearGradient id="paint72_linear_122_130" x1="938.5" y1="-17" x2="938.5" y2="281.818" gradientUnits="userSpaceOnUse">
<stop stop-color="#F7DD43"/>
<stop offset="1" stop-color="#F7DD43" stop-opacity="0"/>
</linearGradient>
<linearGradient id="paint73_linear_122_130" x1="938.5" y1="-17" x2="938.5" y2="281.818" gradientUnits="userSpaceOnUse">
<stop stop-color="#F7DD43"/>
<stop offset="1" stop-color="#F7DD43" stop-opacity="0"/>
</linearGradient>
<linearGradient id="paint74_linear_122_130" x1="938.5" y1="-17" x2="938.5" y2="281.818" gradientUnits="userSpaceOnUse">
<stop stop-color="#F7DD43"/>
<stop offset="1" stop-color="#F7DD43" stop-opacity="0"/>
</linearGradient>
<linearGradient id="paint75_linear_122_130" x1="938.5" y1="-17" x2="938.5" y2="281.818" gradientUnits="userSpaceOnUse">
<stop stop-color="#F7DD43"/>
<stop offset="1" stop-color="#F7DD43" stop-opacity="0"/>
</linearGradient>
<linearGradient id="paint76_linear_122_130" x1="938.5" y1="-17" x2="938.5" y2="281.818" gradientUnits="userSpaceOnUse">
<stop stop-color="#F7DD43"/>
<stop offset="1" stop-color="#F7DD43" stop-opacity="0"/>
</linearGradient>
<linearGradient id="paint77_linear_122_130" x1="938.5" y1="-17" x2="938.5" y2="281.818" gradientUnits="userSpaceOnUse">
<stop stop-color="#F7DD43"/>
<stop offset="1" stop-color="#F7DD43" stop-opacity="0"/>
</linearGradient>
<linearGradient id="paint78_linear_122_130" x1="938.5" y1="-17" x2="938.5" y2="281.818" gradientUnits="userSpaceOnUse">
<stop stop-color="#F7DD43"/>
<stop offset="1" stop-color="#F7DD43" stop-opacity="0"/>
</linearGradient>
<linearGradient id="paint79_linear_122_130" x1="938.5" y1="-17" x2="938.5" y2="281.818" gradientUnits="userSpaceOnUse">
<stop stop-color="#F7DD43"/>
<stop offset="1" stop-color="#F7DD43" stop-opacity="0"/>
</linearGradient>
<linearGradient id="paint80_linear_122_130" x1="938.5" y1="-17" x2="938.5" y2="281.818" gradientUnits="userSpaceOnUse">
<stop stop-color="#F7DD43"/>
<stop offset="1" stop-color="#F7DD43" stop-opacity="0"/>
</linearGradient>
<linearGradient id="paint81_linear_122_130" x1="938.5" y1="-17" x2="938.5" y2="281.818" gradientUnits="userSpaceOnUse">
<stop stop-color="#F7DD43"/>
<stop offset="1" stop-color="#F7DD43" stop-opacity="0"/>
</linearGradient>
<linearGradient id="paint82_linear_122_130" x1="938.5" y1="-17" x2="938.5" y2="281.818" gradientUnits="userSpaceOnUse">
<stop stop-color="#F7DD43"/>
<stop offset="1" stop-color="#F7DD43" stop-opacity="0"/>
</linearGradient>
<linearGradient id="paint83_linear_122_130" x1="938.5" y1="-17" x2="938.5" y2="281.818" gradientUnits="userSpaceOnUse">
<stop stop-color="#F7DD43"/>
<stop offset="1" stop-color="#F7DD43" stop-opacity="0"/>
</linearGradient>
<linearGradient id="paint84_linear_122_130" x1="938.5" y1="-17" x2="938.5" y2="281.818" gradientUnits="userSpaceOnUse">
<stop stop-color="#F7DD43"/>
<stop offset="1" stop-color="#F7DD43" stop-opacity="0"/>
</linearGradient>
<linearGradient id="paint85_linear_122_130" x1="938.5" y1="-17" x2="938.5" y2="281.818" gradientUnits="userSpaceOnUse">
<stop stop-color="#F7DD43"/>
<stop offset="1" stop-color="#F7DD43" stop-opacity="0"/>
</linearGradient>
<linearGradient id="paint86_linear_122_130" x1="938.5" y1="-17" x2="938.5" y2="281.818" gradientUnits="userSpaceOnUse">
<stop stop-color="#F7DD43"/>
<stop offset="1" stop-color="#F7DD43" stop-opacity="0"/>
</linearGradient>
<linearGradient id="paint87_linear_122_130" x1="938.5" y1="-17" x2="938.5" y2="281.818" gradientUnits="userSpaceOnUse">
<stop stop-color="#F7DD43"/>
<stop offset="1" stop-color="#F7DD43" stop-opacity="0"/>
</linearGradient>
<linearGradient id="paint88_linear_122_130" x1="938.5" y1="-17" x2="938.5" y2="281.818" gradientUnits="userSpaceOnUse">
<stop stop-color="#F7DD43"/>
<stop offset="1" stop-color="#F7DD43" stop-opacity="0"/>
</linearGradient>
<linearGradient id="paint89_linear_122_130" x1="938.5" y1="-17" x2="938.5" y2="281.818" gradientUnits="userSpaceOnUse">
<stop stop-color="#F7DD43"/>
<stop offset="1" stop-color="#F7DD43" stop-opacity="0"/>
</linearGradient>
<linearGradient id="paint90_linear_122_130" x1="938.5" y1="-17" x2="938.5" y2="281.818" gradientUnits="userSpaceOnUse">
<stop stop-color="#F7DD43"/>
<stop offset="1" stop-color="#F7DD43" stop-opacity="0"/>
</linearGradient>
<linearGradient id="paint91_linear_122_130" x1="938.5" y1="-17" x2="938.5" y2="281.818" gradientUnits="userSpaceOnUse">
<stop stop-color="#F7DD43"/>
<stop offset="1" stop-color="#F7DD43" stop-opacity="0"/>
</linearGradient>
<linearGradient id="paint92_linear_122_130" x1="938.5" y1="-17" x2="938.5" y2="281.818" gradientUnits="userSpaceOnUse">
<stop stop-color="#F7DD43"/>
<stop offset="1" stop-color="#F7DD43" stop-opacity="0"/>
</linearGradient>
<linearGradient id="paint93_linear_122_130" x1="938.5" y1="-17" x2="938.5" y2="281.818" gradientUnits="userSpaceOnUse">
<stop stop-color="#F7DD43"/>
<stop offset="1" stop-color="#F7DD43" stop-opacity="0"/>
</linearGradient>
<clipPath id="clip0_122_130">
<rect width="1024" height="753" fill="white"/>
</clipPath>
</defs>
</svg>
